<?xml version="1.0" encoding="utf-8" standalone="no"?>
<!DOCTYPE svg PUBLIC "-//W3C//DTD SVG 1.1//EN"
  "http://www.w3.org/Graphics/SVG/1.1/DTD/svg11.dtd">
<!-- Created with matplotlib (http://matplotlib.org/) -->
<svg height="290pt" version="1.1" viewBox="0 0 553 290" width="553pt" xmlns="http://www.w3.org/2000/svg" xmlns:xlink="http://www.w3.org/1999/xlink">
 <defs>
  <style type="text/css">
*{stroke-linecap:butt;stroke-linejoin:round;}
  </style>
 </defs>
 <g id="figure_1">
  <g id="patch_1">
   <path d="M 0 290.75175 
L 553.609375 290.75175 
L 553.609375 0 
L 0 0 
z
" style="fill:#ffffff;"/>
  </g>
  <g id="axes_1">
   <g id="patch_2">
    <path d="M 203.657813 253.1955 
L 538.457813 253.1955 
L 538.457813 35.7555 
L 203.657813 35.7555 
z
" style="fill:#ffffff;"/>
   </g>
   <g id="patch_3">
    <path clip-path="url(#pce3b83a04f)" d="M -93.942188 46.6275 
L 447.970255 46.6275 
L 447.970255 68.3715 
L -93.942188 68.3715 
z
" style="fill:#1f77b4;"/>
   </g>
   <g id="patch_4">
    <path clip-path="url(#pce3b83a04f)" d="M -93.942188 90.1155 
L 374.554045 90.1155 
L 374.554045 111.8595 
L -93.942188 111.8595 
z
" style="fill:#1f77b4;"/>
   </g>
   <g id="patch_5">
    <path clip-path="url(#pce3b83a04f)" d="M -93.942188 133.6035 
L 346.233463 133.6035 
L 346.233463 155.3475 
L -93.942188 155.3475 
z
" style="fill:#1f77b4;"/>
   </g>
   <g id="patch_6">
    <path clip-path="url(#pce3b83a04f)" d="M -93.942188 177.0915 
L 338.427961 177.0915 
L 338.427961 198.8355 
L -93.942188 198.8355 
z
" style="fill:#1f77b4;"/>
   </g>
   <g id="patch_7">
    <path clip-path="url(#pce3b83a04f)" d="M -93.942188 220.5795 
L 321.918714 220.5795 
L 321.918714 242.3235 
L -93.942188 242.3235 
z
" style="fill:#1f77b4;"/>
   </g>
   <g id="matplotlib.axis_1">
    <g id="xtick_1">
     <g id="line2d_1">
      <defs>
       <path d="M 0 0 
L 0 3.5 
" id="m7e860cee24" style="stroke:#000000;stroke-width:0.8;"/>
      </defs>
      <g>
       <use style="stroke:#000000;stroke-width:0.8;" x="203.657813" xlink:href="#m7e860cee24" y="253.1955"/>
      </g>
     </g>
     <g id="text_1">
      <!-- 0.8 -->
      <defs>
       <path d="M 31.78125 66.40625 
Q 24.171875 66.40625 20.328125 58.90625 
Q 16.5 51.421875 16.5 36.375 
Q 16.5 21.390625 20.328125 13.890625 
Q 24.171875 6.390625 31.78125 6.390625 
Q 39.453125 6.390625 43.28125 13.890625 
Q 47.125 21.390625 47.125 36.375 
Q 47.125 51.421875 43.28125 58.90625 
Q 39.453125 66.40625 31.78125 66.40625 
z
M 31.78125 74.21875 
Q 44.046875 74.21875 50.515625 64.515625 
Q 56.984375 54.828125 56.984375 36.375 
Q 56.984375 17.96875 50.515625 8.265625 
Q 44.046875 -1.421875 31.78125 -1.421875 
Q 19.53125 -1.421875 13.0625 8.265625 
Q 6.59375 17.96875 6.59375 36.375 
Q 6.59375 54.828125 13.0625 64.515625 
Q 19.53125 74.21875 31.78125 74.21875 
z
" id="DejaVuSans-30"/>
       <path d="M 10.6875 12.40625 
L 21 12.40625 
L 21 0 
L 10.6875 0 
z
" id="DejaVuSans-2e"/>
       <path d="M 31.78125 34.625 
Q 24.75 34.625 20.71875 30.859375 
Q 16.703125 27.09375 16.703125 20.515625 
Q 16.703125 13.921875 20.71875 10.15625 
Q 24.75 6.390625 31.78125 6.390625 
Q 38.8125 6.390625 42.859375 10.171875 
Q 46.921875 13.96875 46.921875 20.515625 
Q 46.921875 27.09375 42.890625 30.859375 
Q 38.875 34.625 31.78125 34.625 
z
M 21.921875 38.8125 
Q 15.578125 40.375 12.03125 44.71875 
Q 8.5 49.078125 8.5 55.328125 
Q 8.5 64.0625 14.71875 69.140625 
Q 20.953125 74.21875 31.78125 74.21875 
Q 42.671875 74.21875 48.875 69.140625 
Q 55.078125 64.0625 55.078125 55.328125 
Q 55.078125 49.078125 51.53125 44.71875 
Q 48 40.375 41.703125 38.8125 
Q 48.828125 37.15625 52.796875 32.3125 
Q 56.78125 27.484375 56.78125 20.515625 
Q 56.78125 9.90625 50.3125 4.234375 
Q 43.84375 -1.421875 31.78125 -1.421875 
Q 19.734375 -1.421875 13.25 4.234375 
Q 6.78125 9.90625 6.78125 20.515625 
Q 6.78125 27.484375 10.78125 32.3125 
Q 14.796875 37.15625 21.921875 38.8125 
z
M 18.3125 54.390625 
Q 18.3125 48.734375 21.84375 45.5625 
Q 25.390625 42.390625 31.78125 42.390625 
Q 38.140625 42.390625 41.71875 45.5625 
Q 45.3125 48.734375 45.3125 54.390625 
Q 45.3125 60.0625 41.71875 63.234375 
Q 38.140625 66.40625 31.78125 66.40625 
Q 25.390625 66.40625 21.84375 63.234375 
Q 18.3125 60.0625 18.3125 54.390625 
z
" id="DejaVuSans-38"/>
      </defs>
      <g transform="translate(195.70625 267.793937)scale(0.1 -0.1)">
       <use xlink:href="#DejaVuSans-30"/>
       <use x="63.623047" xlink:href="#DejaVuSans-2e"/>
       <use x="95.410156" xlink:href="#DejaVuSans-38"/>
      </g>
     </g>
    </g>
    <g id="xtick_2">
     <g id="line2d_2">
      <g>
       <use style="stroke:#000000;stroke-width:0.8;" x="240.857813" xlink:href="#m7e860cee24" y="253.1955"/>
      </g>
     </g>
     <g id="text_2">
      <!-- 0.9 -->
      <defs>
       <path d="M 10.984375 1.515625 
L 10.984375 10.5 
Q 14.703125 8.734375 18.5 7.8125 
Q 22.3125 6.890625 25.984375 6.890625 
Q 35.75 6.890625 40.890625 13.453125 
Q 46.046875 20.015625 46.78125 33.40625 
Q 43.953125 29.203125 39.59375 26.953125 
Q 35.25 24.703125 29.984375 24.703125 
Q 19.046875 24.703125 12.671875 31.3125 
Q 6.296875 37.9375 6.296875 49.421875 
Q 6.296875 60.640625 12.9375 67.421875 
Q 19.578125 74.21875 30.609375 74.21875 
Q 43.265625 74.21875 49.921875 64.515625 
Q 56.59375 54.828125 56.59375 36.375 
Q 56.59375 19.140625 48.40625 8.859375 
Q 40.234375 -1.421875 26.421875 -1.421875 
Q 22.703125 -1.421875 18.890625 -0.6875 
Q 15.09375 0.046875 10.984375 1.515625 
z
M 30.609375 32.421875 
Q 37.25 32.421875 41.125 36.953125 
Q 45.015625 41.5 45.015625 49.421875 
Q 45.015625 57.28125 41.125 61.84375 
Q 37.25 66.40625 30.609375 66.40625 
Q 23.96875 66.40625 20.09375 61.84375 
Q 16.21875 57.28125 16.21875 49.421875 
Q 16.21875 41.5 20.09375 36.953125 
Q 23.96875 32.421875 30.609375 32.421875 
z
" id="DejaVuSans-39"/>
      </defs>
      <g transform="translate(232.90625 267.793937)scale(0.1 -0.1)">
       <use xlink:href="#DejaVuSans-30"/>
       <use x="63.623047" xlink:href="#DejaVuSans-2e"/>
       <use x="95.410156" xlink:href="#DejaVuSans-39"/>
      </g>
     </g>
    </g>
    <g id="xtick_3">
     <g id="line2d_3">
      <g>
       <use style="stroke:#000000;stroke-width:0.8;" x="278.057813" xlink:href="#m7e860cee24" y="253.1955"/>
      </g>
     </g>
     <g id="text_3">
      <!-- 1.0 -->
      <defs>
       <path d="M 12.40625 8.296875 
L 28.515625 8.296875 
L 28.515625 63.921875 
L 10.984375 60.40625 
L 10.984375 69.390625 
L 28.421875 72.90625 
L 38.28125 72.90625 
L 38.28125 8.296875 
L 54.390625 8.296875 
L 54.390625 0 
L 12.40625 0 
z
" id="DejaVuSans-31"/>
      </defs>
      <g transform="translate(270.10625 267.793937)scale(0.1 -0.1)">
       <use xlink:href="#DejaVuSans-31"/>
       <use x="63.623047" xlink:href="#DejaVuSans-2e"/>
       <use x="95.410156" xlink:href="#DejaVuSans-30"/>
      </g>
     </g>
    </g>
    <g id="xtick_4">
     <g id="line2d_4">
      <g>
       <use style="stroke:#000000;stroke-width:0.8;" x="315.257813" xlink:href="#m7e860cee24" y="253.1955"/>
      </g>
     </g>
     <g id="text_4">
      <!-- 1.1 -->
      <g transform="translate(307.30625 267.793937)scale(0.1 -0.1)">
       <use xlink:href="#DejaVuSans-31"/>
       <use x="63.623047" xlink:href="#DejaVuSans-2e"/>
       <use x="95.410156" xlink:href="#DejaVuSans-31"/>
      </g>
     </g>
    </g>
    <g id="xtick_5">
     <g id="line2d_5">
      <g>
       <use style="stroke:#000000;stroke-width:0.8;" x="352.457813" xlink:href="#m7e860cee24" y="253.1955"/>
      </g>
     </g>
     <g id="text_5">
      <!-- 1.2 -->
      <defs>
       <path d="M 19.1875 8.296875 
L 53.609375 8.296875 
L 53.609375 0 
L 7.328125 0 
L 7.328125 8.296875 
Q 12.9375 14.109375 22.625 23.890625 
Q 32.328125 33.6875 34.8125 36.53125 
Q 39.546875 41.84375 41.421875 45.53125 
Q 43.3125 49.21875 43.3125 52.78125 
Q 43.3125 58.59375 39.234375 62.25 
Q 35.15625 65.921875 28.609375 65.921875 
Q 23.96875 65.921875 18.8125 64.3125 
Q 13.671875 62.703125 7.8125 59.421875 
L 7.8125 69.390625 
Q 13.765625 71.78125 18.9375 73 
Q 24.125 74.21875 28.421875 74.21875 
Q 39.75 74.21875 46.484375 68.546875 
Q 53.21875 62.890625 53.21875 53.421875 
Q 53.21875 48.921875 51.53125 44.890625 
Q 49.859375 40.875 45.40625 35.40625 
Q 44.1875 33.984375 37.640625 27.21875 
Q 31.109375 20.453125 19.1875 8.296875 
z
" id="DejaVuSans-32"/>
      </defs>
      <g transform="translate(344.50625 267.793937)scale(0.1 -0.1)">
       <use xlink:href="#DejaVuSans-31"/>
       <use x="63.623047" xlink:href="#DejaVuSans-2e"/>
       <use x="95.410156" xlink:href="#DejaVuSans-32"/>
      </g>
     </g>
    </g>
    <g id="xtick_6">
     <g id="line2d_6">
      <g>
       <use style="stroke:#000000;stroke-width:0.8;" x="389.657813" xlink:href="#m7e860cee24" y="253.1955"/>
      </g>
     </g>
     <g id="text_6">
      <!-- 1.3 -->
      <defs>
       <path d="M 40.578125 39.3125 
Q 47.65625 37.796875 51.625 33 
Q 55.609375 28.21875 55.609375 21.1875 
Q 55.609375 10.40625 48.1875 4.484375 
Q 40.765625 -1.421875 27.09375 -1.421875 
Q 22.515625 -1.421875 17.65625 -0.515625 
Q 12.796875 0.390625 7.625 2.203125 
L 7.625 11.71875 
Q 11.71875 9.328125 16.59375 8.109375 
Q 21.484375 6.890625 26.8125 6.890625 
Q 36.078125 6.890625 40.9375 10.546875 
Q 45.796875 14.203125 45.796875 21.1875 
Q 45.796875 27.640625 41.28125 31.265625 
Q 36.765625 34.90625 28.71875 34.90625 
L 20.21875 34.90625 
L 20.21875 43.015625 
L 29.109375 43.015625 
Q 36.375 43.015625 40.234375 45.921875 
Q 44.09375 48.828125 44.09375 54.296875 
Q 44.09375 59.90625 40.109375 62.90625 
Q 36.140625 65.921875 28.71875 65.921875 
Q 24.65625 65.921875 20.015625 65.03125 
Q 15.375 64.15625 9.8125 62.3125 
L 9.8125 71.09375 
Q 15.4375 72.65625 20.34375 73.4375 
Q 25.25 74.21875 29.59375 74.21875 
Q 40.828125 74.21875 47.359375 69.109375 
Q 53.90625 64.015625 53.90625 55.328125 
Q 53.90625 49.265625 50.4375 45.09375 
Q 46.96875 40.921875 40.578125 39.3125 
z
" id="DejaVuSans-33"/>
      </defs>
      <g transform="translate(381.70625 267.793937)scale(0.1 -0.1)">
       <use xlink:href="#DejaVuSans-31"/>
       <use x="63.623047" xlink:href="#DejaVuSans-2e"/>
       <use x="95.410156" xlink:href="#DejaVuSans-33"/>
      </g>
     </g>
    </g>
    <g id="xtick_7">
     <g id="line2d_7">
      <g>
       <use style="stroke:#000000;stroke-width:0.8;" x="426.857813" xlink:href="#m7e860cee24" y="253.1955"/>
      </g>
     </g>
     <g id="text_7">
      <!-- 1.4 -->
      <defs>
       <path d="M 37.796875 64.3125 
L 12.890625 25.390625 
L 37.796875 25.390625 
z
M 35.203125 72.90625 
L 47.609375 72.90625 
L 47.609375 25.390625 
L 58.015625 25.390625 
L 58.015625 17.1875 
L 47.609375 17.1875 
L 47.609375 0 
L 37.796875 0 
L 37.796875 17.1875 
L 4.890625 17.1875 
L 4.890625 26.703125 
z
" id="DejaVuSans-34"/>
      </defs>
      <g transform="translate(418.90625 267.793937)scale(0.1 -0.1)">
       <use xlink:href="#DejaVuSans-31"/>
       <use x="63.623047" xlink:href="#DejaVuSans-2e"/>
       <use x="95.410156" xlink:href="#DejaVuSans-34"/>
      </g>
     </g>
    </g>
    <g id="xtick_8">
     <g id="line2d_8">
      <g>
       <use style="stroke:#000000;stroke-width:0.8;" x="464.057813" xlink:href="#m7e860cee24" y="253.1955"/>
      </g>
     </g>
     <g id="text_8">
      <!-- 1.5 -->
      <defs>
       <path d="M 10.796875 72.90625 
L 49.515625 72.90625 
L 49.515625 64.59375 
L 19.828125 64.59375 
L 19.828125 46.734375 
Q 21.96875 47.46875 24.109375 47.828125 
Q 26.265625 48.1875 28.421875 48.1875 
Q 40.625 48.1875 47.75 41.5 
Q 54.890625 34.8125 54.890625 23.390625 
Q 54.890625 11.625 47.5625 5.09375 
Q 40.234375 -1.421875 26.90625 -1.421875 
Q 22.3125 -1.421875 17.546875 -0.640625 
Q 12.796875 0.140625 7.71875 1.703125 
L 7.71875 11.625 
Q 12.109375 9.234375 16.796875 8.0625 
Q 21.484375 6.890625 26.703125 6.890625 
Q 35.15625 6.890625 40.078125 11.328125 
Q 45.015625 15.765625 45.015625 23.390625 
Q 45.015625 31 40.078125 35.4375 
Q 35.15625 39.890625 26.703125 39.890625 
Q 22.75 39.890625 18.8125 39.015625 
Q 14.890625 38.140625 10.796875 36.28125 
z
" id="DejaVuSans-35"/>
      </defs>
      <g transform="translate(456.10625 267.793937)scale(0.1 -0.1)">
       <use xlink:href="#DejaVuSans-31"/>
       <use x="63.623047" xlink:href="#DejaVuSans-2e"/>
       <use x="95.410156" xlink:href="#DejaVuSans-35"/>
      </g>
     </g>
    </g>
    <g id="xtick_9">
     <g id="line2d_9">
      <g>
       <use style="stroke:#000000;stroke-width:0.8;" x="501.257813" xlink:href="#m7e860cee24" y="253.1955"/>
      </g>
     </g>
     <g id="text_9">
      <!-- 1.6 -->
      <defs>
       <path d="M 33.015625 40.375 
Q 26.375 40.375 22.484375 35.828125 
Q 18.609375 31.296875 18.609375 23.390625 
Q 18.609375 15.53125 22.484375 10.953125 
Q 26.375 6.390625 33.015625 6.390625 
Q 39.65625 6.390625 43.53125 10.953125 
Q 47.40625 15.53125 47.40625 23.390625 
Q 47.40625 31.296875 43.53125 35.828125 
Q 39.65625 40.375 33.015625 40.375 
z
M 52.59375 71.296875 
L 52.59375 62.3125 
Q 48.875 64.0625 45.09375 64.984375 
Q 41.3125 65.921875 37.59375 65.921875 
Q 27.828125 65.921875 22.671875 59.328125 
Q 17.53125 52.734375 16.796875 39.40625 
Q 19.671875 43.65625 24.015625 45.921875 
Q 28.375 48.1875 33.59375 48.1875 
Q 44.578125 48.1875 50.953125 41.515625 
Q 57.328125 34.859375 57.328125 23.390625 
Q 57.328125 12.15625 50.6875 5.359375 
Q 44.046875 -1.421875 33.015625 -1.421875 
Q 20.359375 -1.421875 13.671875 8.265625 
Q 6.984375 17.96875 6.984375 36.375 
Q 6.984375 53.65625 15.1875 63.9375 
Q 23.390625 74.21875 37.203125 74.21875 
Q 40.921875 74.21875 44.703125 73.484375 
Q 48.484375 72.75 52.59375 71.296875 
z
" id="DejaVuSans-36"/>
      </defs>
      <g transform="translate(493.30625 267.793937)scale(0.1 -0.1)">
       <use xlink:href="#DejaVuSans-31"/>
       <use x="63.623047" xlink:href="#DejaVuSans-2e"/>
       <use x="95.410156" xlink:href="#DejaVuSans-36"/>
      </g>
     </g>
    </g>
    <g id="xtick_10">
     <g id="line2d_10">
      <g>
       <use style="stroke:#000000;stroke-width:0.8;" x="538.457813" xlink:href="#m7e860cee24" y="253.1955"/>
      </g>
     </g>
     <g id="text_10">
      <!-- 1.7 -->
      <defs>
       <path d="M 8.203125 72.90625 
L 55.078125 72.90625 
L 55.078125 68.703125 
L 28.609375 0 
L 18.3125 0 
L 43.21875 64.59375 
L 8.203125 64.59375 
z
" id="DejaVuSans-37"/>
      </defs>
      <g transform="translate(530.50625 267.793937)scale(0.1 -0.1)">
       <use xlink:href="#DejaVuSans-31"/>
       <use x="63.623047" xlink:href="#DejaVuSans-2e"/>
       <use x="95.410156" xlink:href="#DejaVuSans-37"/>
      </g>
     </g>
    </g>
    <g id="text_11">
     <!-- Multiplier on monthly rent -->
     <defs>
      <path d="M 9.8125 72.90625 
L 24.515625 72.90625 
L 43.109375 23.296875 
L 61.8125 72.90625 
L 76.515625 72.90625 
L 76.515625 0 
L 66.890625 0 
L 66.890625 64.015625 
L 48.09375 14.015625 
L 38.1875 14.015625 
L 19.390625 64.015625 
L 19.390625 0 
L 9.8125 0 
z
" id="DejaVuSans-4d"/>
      <path d="M 8.5 21.578125 
L 8.5 54.6875 
L 17.484375 54.6875 
L 17.484375 21.921875 
Q 17.484375 14.15625 20.5 10.265625 
Q 23.53125 6.390625 29.59375 6.390625 
Q 36.859375 6.390625 41.078125 11.03125 
Q 45.3125 15.671875 45.3125 23.6875 
L 45.3125 54.6875 
L 54.296875 54.6875 
L 54.296875 0 
L 45.3125 0 
L 45.3125 8.40625 
Q 42.046875 3.421875 37.71875 1 
Q 33.40625 -1.421875 27.6875 -1.421875 
Q 18.265625 -1.421875 13.375 4.4375 
Q 8.5 10.296875 8.5 21.578125 
z
M 31.109375 56 
z
" id="DejaVuSans-75"/>
      <path d="M 9.421875 75.984375 
L 18.40625 75.984375 
L 18.40625 0 
L 9.421875 0 
z
" id="DejaVuSans-6c"/>
      <path d="M 18.3125 70.21875 
L 18.3125 54.6875 
L 36.8125 54.6875 
L 36.8125 47.703125 
L 18.3125 47.703125 
L 18.3125 18.015625 
Q 18.3125 11.328125 20.140625 9.421875 
Q 21.96875 7.515625 27.59375 7.515625 
L 36.8125 7.515625 
L 36.8125 0 
L 27.59375 0 
Q 17.1875 0 13.234375 3.875 
Q 9.28125 7.765625 9.28125 18.015625 
L 9.28125 47.703125 
L 2.6875 47.703125 
L 2.6875 54.6875 
L 9.28125 54.6875 
L 9.28125 70.21875 
z
" id="DejaVuSans-74"/>
      <path d="M 9.421875 54.6875 
L 18.40625 54.6875 
L 18.40625 0 
L 9.421875 0 
z
M 9.421875 75.984375 
L 18.40625 75.984375 
L 18.40625 64.59375 
L 9.421875 64.59375 
z
" id="DejaVuSans-69"/>
      <path d="M 18.109375 8.203125 
L 18.109375 -20.796875 
L 9.078125 -20.796875 
L 9.078125 54.6875 
L 18.109375 54.6875 
L 18.109375 46.390625 
Q 20.953125 51.265625 25.265625 53.625 
Q 29.59375 56 35.59375 56 
Q 45.5625 56 51.78125 48.09375 
Q 58.015625 40.1875 58.015625 27.296875 
Q 58.015625 14.40625 51.78125 6.484375 
Q 45.5625 -1.421875 35.59375 -1.421875 
Q 29.59375 -1.421875 25.265625 0.953125 
Q 20.953125 3.328125 18.109375 8.203125 
z
M 48.6875 27.296875 
Q 48.6875 37.203125 44.609375 42.84375 
Q 40.53125 48.484375 33.40625 48.484375 
Q 26.265625 48.484375 22.1875 42.84375 
Q 18.109375 37.203125 18.109375 27.296875 
Q 18.109375 17.390625 22.1875 11.75 
Q 26.265625 6.109375 33.40625 6.109375 
Q 40.53125 6.109375 44.609375 11.75 
Q 48.6875 17.390625 48.6875 27.296875 
z
" id="DejaVuSans-70"/>
      <path d="M 56.203125 29.59375 
L 56.203125 25.203125 
L 14.890625 25.203125 
Q 15.484375 15.921875 20.484375 11.0625 
Q 25.484375 6.203125 34.421875 6.203125 
Q 39.59375 6.203125 44.453125 7.46875 
Q 49.3125 8.734375 54.109375 11.28125 
L 54.109375 2.78125 
Q 49.265625 0.734375 44.1875 -0.34375 
Q 39.109375 -1.421875 33.890625 -1.421875 
Q 20.796875 -1.421875 13.15625 6.1875 
Q 5.515625 13.8125 5.515625 26.8125 
Q 5.515625 40.234375 12.765625 48.109375 
Q 20.015625 56 32.328125 56 
Q 43.359375 56 49.78125 48.890625 
Q 56.203125 41.796875 56.203125 29.59375 
z
M 47.21875 32.234375 
Q 47.125 39.59375 43.09375 43.984375 
Q 39.0625 48.390625 32.421875 48.390625 
Q 24.90625 48.390625 20.390625 44.140625 
Q 15.875 39.890625 15.1875 32.171875 
z
" id="DejaVuSans-65"/>
      <path d="M 41.109375 46.296875 
Q 39.59375 47.171875 37.8125 47.578125 
Q 36.03125 48 33.890625 48 
Q 26.265625 48 22.1875 43.046875 
Q 18.109375 38.09375 18.109375 28.8125 
L 18.109375 0 
L 9.078125 0 
L 9.078125 54.6875 
L 18.109375 54.6875 
L 18.109375 46.1875 
Q 20.953125 51.171875 25.484375 53.578125 
Q 30.03125 56 36.53125 56 
Q 37.453125 56 38.578125 55.875 
Q 39.703125 55.765625 41.0625 55.515625 
z
" id="DejaVuSans-72"/>
      <path id="DejaVuSans-20"/>
      <path d="M 30.609375 48.390625 
Q 23.390625 48.390625 19.1875 42.75 
Q 14.984375 37.109375 14.984375 27.296875 
Q 14.984375 17.484375 19.15625 11.84375 
Q 23.34375 6.203125 30.609375 6.203125 
Q 37.796875 6.203125 41.984375 11.859375 
Q 46.1875 17.53125 46.1875 27.296875 
Q 46.1875 37.015625 41.984375 42.703125 
Q 37.796875 48.390625 30.609375 48.390625 
z
M 30.609375 56 
Q 42.328125 56 49.015625 48.375 
Q 55.71875 40.765625 55.71875 27.296875 
Q 55.71875 13.875 49.015625 6.21875 
Q 42.328125 -1.421875 30.609375 -1.421875 
Q 18.84375 -1.421875 12.171875 6.21875 
Q 5.515625 13.875 5.515625 27.296875 
Q 5.515625 40.765625 12.171875 48.375 
Q 18.84375 56 30.609375 56 
z
" id="DejaVuSans-6f"/>
      <path d="M 54.890625 33.015625 
L 54.890625 0 
L 45.90625 0 
L 45.90625 32.71875 
Q 45.90625 40.484375 42.875 44.328125 
Q 39.84375 48.1875 33.796875 48.1875 
Q 26.515625 48.1875 22.3125 43.546875 
Q 18.109375 38.921875 18.109375 30.90625 
L 18.109375 0 
L 9.078125 0 
L 9.078125 54.6875 
L 18.109375 54.6875 
L 18.109375 46.1875 
Q 21.34375 51.125 25.703125 53.5625 
Q 30.078125 56 35.796875 56 
Q 45.21875 56 50.046875 50.171875 
Q 54.890625 44.34375 54.890625 33.015625 
z
" id="DejaVuSans-6e"/>
      <path d="M 52 44.1875 
Q 55.375 50.25 60.0625 53.125 
Q 64.75 56 71.09375 56 
Q 79.640625 56 84.28125 50.015625 
Q 88.921875 44.046875 88.921875 33.015625 
L 88.921875 0 
L 79.890625 0 
L 79.890625 32.71875 
Q 79.890625 40.578125 77.09375 44.375 
Q 74.3125 48.1875 68.609375 48.1875 
Q 61.625 48.1875 57.5625 43.546875 
Q 53.515625 38.921875 53.515625 30.90625 
L 53.515625 0 
L 44.484375 0 
L 44.484375 32.71875 
Q 44.484375 40.625 41.703125 44.40625 
Q 38.921875 48.1875 33.109375 48.1875 
Q 26.21875 48.1875 22.15625 43.53125 
Q 18.109375 38.875 18.109375 30.90625 
L 18.109375 0 
L 9.078125 0 
L 9.078125 54.6875 
L 18.109375 54.6875 
L 18.109375 46.1875 
Q 21.1875 51.21875 25.484375 53.609375 
Q 29.78125 56 35.6875 56 
Q 41.65625 56 45.828125 52.96875 
Q 50 49.953125 52 44.1875 
z
" id="DejaVuSans-6d"/>
      <path d="M 54.890625 33.015625 
L 54.890625 0 
L 45.90625 0 
L 45.90625 32.71875 
Q 45.90625 40.484375 42.875 44.328125 
Q 39.84375 48.1875 33.796875 48.1875 
Q 26.515625 48.1875 22.3125 43.546875 
Q 18.109375 38.921875 18.109375 30.90625 
L 18.109375 0 
L 9.078125 0 
L 9.078125 75.984375 
L 18.109375 75.984375 
L 18.109375 46.1875 
Q 21.34375 51.125 25.703125 53.5625 
Q 30.078125 56 35.796875 56 
Q 45.21875 56 50.046875 50.171875 
Q 54.890625 44.34375 54.890625 33.015625 
z
" id="DejaVuSans-68"/>
      <path d="M 32.171875 -5.078125 
Q 28.375 -14.84375 24.75 -17.8125 
Q 21.140625 -20.796875 15.09375 -20.796875 
L 7.90625 -20.796875 
L 7.90625 -13.28125 
L 13.1875 -13.28125 
Q 16.890625 -13.28125 18.9375 -11.515625 
Q 21 -9.765625 23.484375 -3.21875 
L 25.09375 0.875 
L 2.984375 54.6875 
L 12.5 54.6875 
L 29.59375 11.921875 
L 46.6875 54.6875 
L 56.203125 54.6875 
z
" id="DejaVuSans-79"/>
     </defs>
     <g transform="translate(305.921875 281.472062)scale(0.1 -0.1)">
      <use xlink:href="#DejaVuSans-4d"/>
      <use x="86.279297" xlink:href="#DejaVuSans-75"/>
      <use x="149.658203" xlink:href="#DejaVuSans-6c"/>
      <use x="177.441406" xlink:href="#DejaVuSans-74"/>
      <use x="216.650391" xlink:href="#DejaVuSans-69"/>
      <use x="244.433594" xlink:href="#DejaVuSans-70"/>
      <use x="307.910156" xlink:href="#DejaVuSans-6c"/>
      <use x="335.693359" xlink:href="#DejaVuSans-69"/>
      <use x="363.476562" xlink:href="#DejaVuSans-65"/>
      <use x="425" xlink:href="#DejaVuSans-72"/>
      <use x="466.113281" xlink:href="#DejaVuSans-20"/>
      <use x="497.900391" xlink:href="#DejaVuSans-6f"/>
      <use x="559.082031" xlink:href="#DejaVuSans-6e"/>
      <use x="622.460938" xlink:href="#DejaVuSans-20"/>
      <use x="654.248047" xlink:href="#DejaVuSans-6d"/>
      <use x="751.660156" xlink:href="#DejaVuSans-6f"/>
      <use x="812.841797" xlink:href="#DejaVuSans-6e"/>
      <use x="876.220703" xlink:href="#DejaVuSans-74"/>
      <use x="915.429688" xlink:href="#DejaVuSans-68"/>
      <use x="978.808594" xlink:href="#DejaVuSans-6c"/>
      <use x="1006.591797" xlink:href="#DejaVuSans-79"/>
      <use x="1065.771484" xlink:href="#DejaVuSans-20"/>
      <use x="1097.558594" xlink:href="#DejaVuSans-72"/>
      <use x="1138.640625" xlink:href="#DejaVuSans-65"/>
      <use x="1200.164062" xlink:href="#DejaVuSans-6e"/>
      <use x="1263.542969" xlink:href="#DejaVuSans-74"/>
     </g>
    </g>
   </g>
   <g id="matplotlib.axis_2">
    <g id="ytick_1">
     <g id="line2d_11">
      <defs>
       <path d="M 0 0 
L -3.5 0 
" id="m2fd83c03d4" style="stroke:#000000;stroke-width:0.8;"/>
      </defs>
      <g>
       <use style="stroke:#000000;stroke-width:0.8;" x="203.657813" xlink:href="#m2fd83c03d4" y="57.4995"/>
      </g>
     </g>
     <g id="text_12">
      <!-- built in the 21st century           -->
      <defs>
       <path d="M 48.6875 27.296875 
Q 48.6875 37.203125 44.609375 42.84375 
Q 40.53125 48.484375 33.40625 48.484375 
Q 26.265625 48.484375 22.1875 42.84375 
Q 18.109375 37.203125 18.109375 27.296875 
Q 18.109375 17.390625 22.1875 11.75 
Q 26.265625 6.109375 33.40625 6.109375 
Q 40.53125 6.109375 44.609375 11.75 
Q 48.6875 17.390625 48.6875 27.296875 
z
M 18.109375 46.390625 
Q 20.953125 51.265625 25.265625 53.625 
Q 29.59375 56 35.59375 56 
Q 45.5625 56 51.78125 48.09375 
Q 58.015625 40.1875 58.015625 27.296875 
Q 58.015625 14.40625 51.78125 6.484375 
Q 45.5625 -1.421875 35.59375 -1.421875 
Q 29.59375 -1.421875 25.265625 0.953125 
Q 20.953125 3.328125 18.109375 8.203125 
L 18.109375 0 
L 9.078125 0 
L 9.078125 75.984375 
L 18.109375 75.984375 
z
" id="DejaVuSans-62"/>
       <path d="M 44.28125 53.078125 
L 44.28125 44.578125 
Q 40.484375 46.53125 36.375 47.5 
Q 32.28125 48.484375 27.875 48.484375 
Q 21.1875 48.484375 17.84375 46.4375 
Q 14.5 44.390625 14.5 40.28125 
Q 14.5 37.15625 16.890625 35.375 
Q 19.28125 33.59375 26.515625 31.984375 
L 29.59375 31.296875 
Q 39.15625 29.25 43.1875 25.515625 
Q 47.21875 21.78125 47.21875 15.09375 
Q 47.21875 7.46875 41.1875 3.015625 
Q 35.15625 -1.421875 24.609375 -1.421875 
Q 20.21875 -1.421875 15.453125 -0.5625 
Q 10.6875 0.296875 5.421875 2 
L 5.421875 11.28125 
Q 10.40625 8.6875 15.234375 7.390625 
Q 20.0625 6.109375 24.8125 6.109375 
Q 31.15625 6.109375 34.5625 8.28125 
Q 37.984375 10.453125 37.984375 14.40625 
Q 37.984375 18.0625 35.515625 20.015625 
Q 33.0625 21.96875 24.703125 23.78125 
L 21.578125 24.515625 
Q 13.234375 26.265625 9.515625 29.90625 
Q 5.8125 33.546875 5.8125 39.890625 
Q 5.8125 47.609375 11.28125 51.796875 
Q 16.75 56 26.8125 56 
Q 31.78125 56 36.171875 55.265625 
Q 40.578125 54.546875 44.28125 53.078125 
z
" id="DejaVuSans-73"/>
       <path d="M 48.78125 52.59375 
L 48.78125 44.1875 
Q 44.96875 46.296875 41.140625 47.34375 
Q 37.3125 48.390625 33.40625 48.390625 
Q 24.65625 48.390625 19.8125 42.84375 
Q 14.984375 37.3125 14.984375 27.296875 
Q 14.984375 17.28125 19.8125 11.734375 
Q 24.65625 6.203125 33.40625 6.203125 
Q 37.3125 6.203125 41.140625 7.25 
Q 44.96875 8.296875 48.78125 10.40625 
L 48.78125 2.09375 
Q 45.015625 0.34375 40.984375 -0.53125 
Q 36.96875 -1.421875 32.421875 -1.421875 
Q 20.0625 -1.421875 12.78125 6.34375 
Q 5.515625 14.109375 5.515625 27.296875 
Q 5.515625 40.671875 12.859375 48.328125 
Q 20.21875 56 33.015625 56 
Q 37.15625 56 41.109375 55.140625 
Q 45.0625 54.296875 48.78125 52.59375 
z
" id="DejaVuSans-63"/>
      </defs>
      <g transform="translate(44.34375 61.298719)scale(0.1 -0.1)">
       <use xlink:href="#DejaVuSans-62"/>
       <use x="63.476562" xlink:href="#DejaVuSans-75"/>
       <use x="126.855469" xlink:href="#DejaVuSans-69"/>
       <use x="154.638672" xlink:href="#DejaVuSans-6c"/>
       <use x="182.421875" xlink:href="#DejaVuSans-74"/>
       <use x="221.630859" xlink:href="#DejaVuSans-20"/>
       <use x="253.417969" xlink:href="#DejaVuSans-69"/>
       <use x="281.201172" xlink:href="#DejaVuSans-6e"/>
       <use x="344.580078" xlink:href="#DejaVuSans-20"/>
       <use x="376.367188" xlink:href="#DejaVuSans-74"/>
       <use x="415.576172" xlink:href="#DejaVuSans-68"/>
       <use x="478.955078" xlink:href="#DejaVuSans-65"/>
       <use x="540.478516" xlink:href="#DejaVuSans-20"/>
       <use x="572.265625" xlink:href="#DejaVuSans-32"/>
       <use x="635.888672" xlink:href="#DejaVuSans-31"/>
       <use x="699.511719" xlink:href="#DejaVuSans-73"/>
       <use x="751.611328" xlink:href="#DejaVuSans-74"/>
       <use x="790.820312" xlink:href="#DejaVuSans-20"/>
       <use x="822.607422" xlink:href="#DejaVuSans-63"/>
       <use x="877.587891" xlink:href="#DejaVuSans-65"/>
       <use x="939.111328" xlink:href="#DejaVuSans-6e"/>
       <use x="1002.490234" xlink:href="#DejaVuSans-74"/>
       <use x="1041.699219" xlink:href="#DejaVuSans-75"/>
       <use x="1105.078125" xlink:href="#DejaVuSans-72"/>
       <use x="1146.191406" xlink:href="#DejaVuSans-79"/>
       <use x="1205.371094" xlink:href="#DejaVuSans-20"/>
       <use x="1237.158203" xlink:href="#DejaVuSans-20"/>
       <use x="1268.945312" xlink:href="#DejaVuSans-20"/>
       <use x="1300.732422" xlink:href="#DejaVuSans-20"/>
       <use x="1332.519531" xlink:href="#DejaVuSans-20"/>
       <use x="1364.306641" xlink:href="#DejaVuSans-20"/>
       <use x="1396.09375" xlink:href="#DejaVuSans-20"/>
       <use x="1427.880859" xlink:href="#DejaVuSans-20"/>
       <use x="1459.667969" xlink:href="#DejaVuSans-20"/>
       <use x="1491.455078" xlink:href="#DejaVuSans-20"/>
      </g>
     </g>
    </g>
    <g id="ytick_2">
     <g id="line2d_12">
      <g>
       <use style="stroke:#000000;stroke-width:0.8;" x="203.657813" xlink:href="#m2fd83c03d4" y="100.9875"/>
      </g>
     </g>
     <g id="text_13">
      <!-- every additional bathroom           -->
      <defs>
       <path d="M 2.984375 54.6875 
L 12.5 54.6875 
L 29.59375 8.796875 
L 46.6875 54.6875 
L 56.203125 54.6875 
L 35.6875 0 
L 23.484375 0 
z
" id="DejaVuSans-76"/>
       <path d="M 34.28125 27.484375 
Q 23.390625 27.484375 19.1875 25 
Q 14.984375 22.515625 14.984375 16.5 
Q 14.984375 11.71875 18.140625 8.90625 
Q 21.296875 6.109375 26.703125 6.109375 
Q 34.1875 6.109375 38.703125 11.40625 
Q 43.21875 16.703125 43.21875 25.484375 
L 43.21875 27.484375 
z
M 52.203125 31.203125 
L 52.203125 0 
L 43.21875 0 
L 43.21875 8.296875 
Q 40.140625 3.328125 35.546875 0.953125 
Q 30.953125 -1.421875 24.3125 -1.421875 
Q 15.921875 -1.421875 10.953125 3.296875 
Q 6 8.015625 6 15.921875 
Q 6 25.140625 12.171875 29.828125 
Q 18.359375 34.515625 30.609375 34.515625 
L 43.21875 34.515625 
L 43.21875 35.40625 
Q 43.21875 41.609375 39.140625 45 
Q 35.0625 48.390625 27.6875 48.390625 
Q 23 48.390625 18.546875 47.265625 
Q 14.109375 46.140625 10.015625 43.890625 
L 10.015625 52.203125 
Q 14.9375 54.109375 19.578125 55.046875 
Q 24.21875 56 28.609375 56 
Q 40.484375 56 46.34375 49.84375 
Q 52.203125 43.703125 52.203125 31.203125 
z
" id="DejaVuSans-61"/>
       <path d="M 45.40625 46.390625 
L 45.40625 75.984375 
L 54.390625 75.984375 
L 54.390625 0 
L 45.40625 0 
L 45.40625 8.203125 
Q 42.578125 3.328125 38.25 0.953125 
Q 33.9375 -1.421875 27.875 -1.421875 
Q 17.96875 -1.421875 11.734375 6.484375 
Q 5.515625 14.40625 5.515625 27.296875 
Q 5.515625 40.1875 11.734375 48.09375 
Q 17.96875 56 27.875 56 
Q 33.9375 56 38.25 53.625 
Q 42.578125 51.265625 45.40625 46.390625 
z
M 14.796875 27.296875 
Q 14.796875 17.390625 18.875 11.75 
Q 22.953125 6.109375 30.078125 6.109375 
Q 37.203125 6.109375 41.296875 11.75 
Q 45.40625 17.390625 45.40625 27.296875 
Q 45.40625 37.203125 41.296875 42.84375 
Q 37.203125 48.484375 30.078125 48.484375 
Q 22.953125 48.484375 18.875 42.84375 
Q 14.796875 37.203125 14.796875 27.296875 
z
" id="DejaVuSans-64"/>
      </defs>
      <g transform="translate(31.78125 104.786719)scale(0.1 -0.1)">
       <use xlink:href="#DejaVuSans-65"/>
       <use x="61.523438" xlink:href="#DejaVuSans-76"/>
       <use x="120.703125" xlink:href="#DejaVuSans-65"/>
       <use x="182.226562" xlink:href="#DejaVuSans-72"/>
       <use x="223.339844" xlink:href="#DejaVuSans-79"/>
       <use x="282.519531" xlink:href="#DejaVuSans-20"/>
       <use x="314.306641" xlink:href="#DejaVuSans-61"/>
       <use x="375.585938" xlink:href="#DejaVuSans-64"/>
       <use x="439.0625" xlink:href="#DejaVuSans-64"/>
       <use x="502.539062" xlink:href="#DejaVuSans-69"/>
       <use x="530.322266" xlink:href="#DejaVuSans-74"/>
       <use x="569.53125" xlink:href="#DejaVuSans-69"/>
       <use x="597.314453" xlink:href="#DejaVuSans-6f"/>
       <use x="658.496094" xlink:href="#DejaVuSans-6e"/>
       <use x="721.875" xlink:href="#DejaVuSans-61"/>
       <use x="783.154297" xlink:href="#DejaVuSans-6c"/>
       <use x="810.9375" xlink:href="#DejaVuSans-20"/>
       <use x="842.724609" xlink:href="#DejaVuSans-62"/>
       <use x="906.201172" xlink:href="#DejaVuSans-61"/>
       <use x="967.480469" xlink:href="#DejaVuSans-74"/>
       <use x="1006.689453" xlink:href="#DejaVuSans-68"/>
       <use x="1070.068359" xlink:href="#DejaVuSans-72"/>
       <use x="1111.150391" xlink:href="#DejaVuSans-6f"/>
       <use x="1172.332031" xlink:href="#DejaVuSans-6f"/>
       <use x="1233.513672" xlink:href="#DejaVuSans-6d"/>
       <use x="1330.925781" xlink:href="#DejaVuSans-20"/>
       <use x="1362.712891" xlink:href="#DejaVuSans-20"/>
       <use x="1394.5" xlink:href="#DejaVuSans-20"/>
       <use x="1426.287109" xlink:href="#DejaVuSans-20"/>
       <use x="1458.074219" xlink:href="#DejaVuSans-20"/>
       <use x="1489.861328" xlink:href="#DejaVuSans-20"/>
       <use x="1521.648438" xlink:href="#DejaVuSans-20"/>
       <use x="1553.435547" xlink:href="#DejaVuSans-20"/>
       <use x="1585.222656" xlink:href="#DejaVuSans-20"/>
       <use x="1617.009766" xlink:href="#DejaVuSans-20"/>
      </g>
     </g>
    </g>
    <g id="ytick_3">
     <g id="line2d_13">
      <g>
       <use style="stroke:#000000;stroke-width:0.8;" x="203.657813" xlink:href="#m2fd83c03d4" y="144.4755"/>
      </g>
     </g>
     <g id="text_14">
      <!-- every additional bedroom           -->
      <g transform="translate(35.665625 148.274719)scale(0.1 -0.1)">
       <use xlink:href="#DejaVuSans-65"/>
       <use x="61.523438" xlink:href="#DejaVuSans-76"/>
       <use x="120.703125" xlink:href="#DejaVuSans-65"/>
       <use x="182.226562" xlink:href="#DejaVuSans-72"/>
       <use x="223.339844" xlink:href="#DejaVuSans-79"/>
       <use x="282.519531" xlink:href="#DejaVuSans-20"/>
       <use x="314.306641" xlink:href="#DejaVuSans-61"/>
       <use x="375.585938" xlink:href="#DejaVuSans-64"/>
       <use x="439.0625" xlink:href="#DejaVuSans-64"/>
       <use x="502.539062" xlink:href="#DejaVuSans-69"/>
       <use x="530.322266" xlink:href="#DejaVuSans-74"/>
       <use x="569.53125" xlink:href="#DejaVuSans-69"/>
       <use x="597.314453" xlink:href="#DejaVuSans-6f"/>
       <use x="658.496094" xlink:href="#DejaVuSans-6e"/>
       <use x="721.875" xlink:href="#DejaVuSans-61"/>
       <use x="783.154297" xlink:href="#DejaVuSans-6c"/>
       <use x="810.9375" xlink:href="#DejaVuSans-20"/>
       <use x="842.724609" xlink:href="#DejaVuSans-62"/>
       <use x="906.201172" xlink:href="#DejaVuSans-65"/>
       <use x="967.724609" xlink:href="#DejaVuSans-64"/>
       <use x="1031.201172" xlink:href="#DejaVuSans-72"/>
       <use x="1072.283203" xlink:href="#DejaVuSans-6f"/>
       <use x="1133.464844" xlink:href="#DejaVuSans-6f"/>
       <use x="1194.646484" xlink:href="#DejaVuSans-6d"/>
       <use x="1292.058594" xlink:href="#DejaVuSans-20"/>
       <use x="1323.845703" xlink:href="#DejaVuSans-20"/>
       <use x="1355.632812" xlink:href="#DejaVuSans-20"/>
       <use x="1387.419922" xlink:href="#DejaVuSans-20"/>
       <use x="1419.207031" xlink:href="#DejaVuSans-20"/>
       <use x="1450.994141" xlink:href="#DejaVuSans-20"/>
       <use x="1482.78125" xlink:href="#DejaVuSans-20"/>
       <use x="1514.568359" xlink:href="#DejaVuSans-20"/>
       <use x="1546.355469" xlink:href="#DejaVuSans-20"/>
       <use x="1578.142578" xlink:href="#DejaVuSans-20"/>
      </g>
     </g>
    </g>
    <g id="ytick_4">
     <g id="line2d_14">
      <g>
       <use style="stroke:#000000;stroke-width:0.8;" x="203.657813" xlink:href="#m2fd83c03d4" y="187.9635"/>
      </g>
     </g>
     <g id="text_15">
      <!-- has central air           -->
      <g transform="translate(92.901562 191.762719)scale(0.1 -0.1)">
       <use xlink:href="#DejaVuSans-68"/>
       <use x="63.378906" xlink:href="#DejaVuSans-61"/>
       <use x="124.658203" xlink:href="#DejaVuSans-73"/>
       <use x="176.757812" xlink:href="#DejaVuSans-20"/>
       <use x="208.544922" xlink:href="#DejaVuSans-63"/>
       <use x="263.525391" xlink:href="#DejaVuSans-65"/>
       <use x="325.048828" xlink:href="#DejaVuSans-6e"/>
       <use x="388.427734" xlink:href="#DejaVuSans-74"/>
       <use x="427.636719" xlink:href="#DejaVuSans-72"/>
       <use x="468.75" xlink:href="#DejaVuSans-61"/>
       <use x="530.029297" xlink:href="#DejaVuSans-6c"/>
       <use x="557.8125" xlink:href="#DejaVuSans-20"/>
       <use x="589.599609" xlink:href="#DejaVuSans-61"/>
       <use x="650.878906" xlink:href="#DejaVuSans-69"/>
       <use x="678.662109" xlink:href="#DejaVuSans-72"/>
       <use x="719.775391" xlink:href="#DejaVuSans-20"/>
       <use x="751.5625" xlink:href="#DejaVuSans-20"/>
       <use x="783.349609" xlink:href="#DejaVuSans-20"/>
       <use x="815.136719" xlink:href="#DejaVuSans-20"/>
       <use x="846.923828" xlink:href="#DejaVuSans-20"/>
       <use x="878.710938" xlink:href="#DejaVuSans-20"/>
       <use x="910.498047" xlink:href="#DejaVuSans-20"/>
       <use x="942.285156" xlink:href="#DejaVuSans-20"/>
       <use x="974.072266" xlink:href="#DejaVuSans-20"/>
       <use x="1005.859375" xlink:href="#DejaVuSans-20"/>
      </g>
     </g>
    </g>
    <g id="ytick_5">
     <g id="line2d_15">
      <g>
       <use style="stroke:#000000;stroke-width:0.8;" x="203.657813" xlink:href="#m2fd83c03d4" y="231.4515"/>
      </g>
     </g>
     <g id="text_16">
      <!-- good access to public transport           -->
      <defs>
       <path d="M 45.40625 27.984375 
Q 45.40625 37.75 41.375 43.109375 
Q 37.359375 48.484375 30.078125 48.484375 
Q 22.859375 48.484375 18.828125 43.109375 
Q 14.796875 37.75 14.796875 27.984375 
Q 14.796875 18.265625 18.828125 12.890625 
Q 22.859375 7.515625 30.078125 7.515625 
Q 37.359375 7.515625 41.375 12.890625 
Q 45.40625 18.265625 45.40625 27.984375 
z
M 54.390625 6.78125 
Q 54.390625 -7.171875 48.1875 -13.984375 
Q 42 -20.796875 29.203125 -20.796875 
Q 24.46875 -20.796875 20.265625 -20.09375 
Q 16.0625 -19.390625 12.109375 -17.921875 
L 12.109375 -9.1875 
Q 16.0625 -11.328125 19.921875 -12.34375 
Q 23.78125 -13.375 27.78125 -13.375 
Q 36.625 -13.375 41.015625 -8.765625 
Q 45.40625 -4.15625 45.40625 5.171875 
L 45.40625 9.625 
Q 42.625 4.78125 38.28125 2.390625 
Q 33.9375 0 27.875 0 
Q 17.828125 0 11.671875 7.65625 
Q 5.515625 15.328125 5.515625 27.984375 
Q 5.515625 40.671875 11.671875 48.328125 
Q 17.828125 56 27.875 56 
Q 33.9375 56 38.28125 53.609375 
Q 42.625 51.21875 45.40625 46.390625 
L 45.40625 54.6875 
L 54.390625 54.6875 
z
" id="DejaVuSans-67"/>
      </defs>
      <g transform="translate(7.2 229.651812)scale(0.1 -0.1)">
       <use xlink:href="#DejaVuSans-67"/>
       <use x="63.476562" xlink:href="#DejaVuSans-6f"/>
       <use x="124.658203" xlink:href="#DejaVuSans-6f"/>
       <use x="185.839844" xlink:href="#DejaVuSans-64"/>
       <use x="249.316406" xlink:href="#DejaVuSans-20"/>
       <use x="281.103516" xlink:href="#DejaVuSans-61"/>
       <use x="342.382812" xlink:href="#DejaVuSans-63"/>
       <use x="397.363281" xlink:href="#DejaVuSans-63"/>
       <use x="452.34375" xlink:href="#DejaVuSans-65"/>
       <use x="513.867188" xlink:href="#DejaVuSans-73"/>
       <use x="565.966797" xlink:href="#DejaVuSans-73"/>
       <use x="618.066406" xlink:href="#DejaVuSans-20"/>
       <use x="649.853516" xlink:href="#DejaVuSans-74"/>
       <use x="689.0625" xlink:href="#DejaVuSans-6f"/>
       <use x="750.244141" xlink:href="#DejaVuSans-20"/>
       <use x="782.03125" xlink:href="#DejaVuSans-70"/>
       <use x="845.507812" xlink:href="#DejaVuSans-75"/>
       <use x="908.886719" xlink:href="#DejaVuSans-62"/>
       <use x="972.363281" xlink:href="#DejaVuSans-6c"/>
       <use x="1000.146484" xlink:href="#DejaVuSans-69"/>
       <use x="1027.929688" xlink:href="#DejaVuSans-63"/>
       <use x="1082.910156" xlink:href="#DejaVuSans-20"/>
       <use x="1114.697266" xlink:href="#DejaVuSans-74"/>
       <use x="1153.90625" xlink:href="#DejaVuSans-72"/>
       <use x="1195.019531" xlink:href="#DejaVuSans-61"/>
       <use x="1256.298828" xlink:href="#DejaVuSans-6e"/>
       <use x="1319.677734" xlink:href="#DejaVuSans-73"/>
       <use x="1371.777344" xlink:href="#DejaVuSans-70"/>
       <use x="1435.253906" xlink:href="#DejaVuSans-6f"/>
       <use x="1496.435547" xlink:href="#DejaVuSans-72"/>
       <use x="1537.548828" xlink:href="#DejaVuSans-74"/>
       <use x="1576.757812" xlink:href="#DejaVuSans-20"/>
       <use x="1608.544922" xlink:href="#DejaVuSans-20"/>
       <use x="1640.332031" xlink:href="#DejaVuSans-20"/>
       <use x="1672.119141" xlink:href="#DejaVuSans-20"/>
       <use x="1703.90625" xlink:href="#DejaVuSans-20"/>
       <use x="1735.693359" xlink:href="#DejaVuSans-20"/>
       <use x="1767.480469" xlink:href="#DejaVuSans-20"/>
       <use x="1799.267578" xlink:href="#DejaVuSans-20"/>
       <use x="1831.054688" xlink:href="#DejaVuSans-20"/>
       <use x="1862.841797" xlink:href="#DejaVuSans-20"/>
      </g>
      <!-- (self-assessed)           -->
      <defs>
       <path d="M 31 75.875 
Q 24.46875 64.65625 21.28125 53.65625 
Q 18.109375 42.671875 18.109375 31.390625 
Q 18.109375 20.125 21.3125 9.0625 
Q 24.515625 -2 31 -13.1875 
L 23.1875 -13.1875 
Q 15.875 -1.703125 12.234375 9.375 
Q 8.59375 20.453125 8.59375 31.390625 
Q 8.59375 42.28125 12.203125 53.3125 
Q 15.828125 64.359375 23.1875 75.875 
z
" id="DejaVuSans-28"/>
       <path d="M 37.109375 75.984375 
L 37.109375 68.5 
L 28.515625 68.5 
Q 23.6875 68.5 21.796875 66.546875 
Q 19.921875 64.59375 19.921875 59.515625 
L 19.921875 54.6875 
L 34.71875 54.6875 
L 34.71875 47.703125 
L 19.921875 47.703125 
L 19.921875 0 
L 10.890625 0 
L 10.890625 47.703125 
L 2.296875 47.703125 
L 2.296875 54.6875 
L 10.890625 54.6875 
L 10.890625 58.5 
Q 10.890625 67.625 15.140625 71.796875 
Q 19.390625 75.984375 28.609375 75.984375 
z
" id="DejaVuSans-66"/>
       <path d="M 4.890625 31.390625 
L 31.203125 31.390625 
L 31.203125 23.390625 
L 4.890625 23.390625 
z
" id="DejaVuSans-2d"/>
       <path d="M 8.015625 75.875 
L 15.828125 75.875 
Q 23.140625 64.359375 26.78125 53.3125 
Q 30.421875 42.28125 30.421875 31.390625 
Q 30.421875 20.453125 26.78125 9.375 
Q 23.140625 -1.703125 15.828125 -13.1875 
L 8.015625 -13.1875 
Q 14.5 -2 17.703125 9.0625 
Q 20.90625 20.125 20.90625 31.390625 
Q 20.90625 42.671875 17.703125 53.65625 
Q 14.5 64.65625 8.015625 75.875 
z
" id="DejaVuSans-29"/>
      </defs>
      <g transform="translate(90.192188 240.849625)scale(0.1 -0.1)">
       <use xlink:href="#DejaVuSans-28"/>
       <use x="39.013672" xlink:href="#DejaVuSans-73"/>
       <use x="91.113281" xlink:href="#DejaVuSans-65"/>
       <use x="152.636719" xlink:href="#DejaVuSans-6c"/>
       <use x="180.419922" xlink:href="#DejaVuSans-66"/>
       <use x="215.546875" xlink:href="#DejaVuSans-2d"/>
       <use x="251.630859" xlink:href="#DejaVuSans-61"/>
       <use x="312.910156" xlink:href="#DejaVuSans-73"/>
       <use x="365.009766" xlink:href="#DejaVuSans-73"/>
       <use x="417.109375" xlink:href="#DejaVuSans-65"/>
       <use x="478.632812" xlink:href="#DejaVuSans-73"/>
       <use x="530.732422" xlink:href="#DejaVuSans-73"/>
       <use x="582.832031" xlink:href="#DejaVuSans-65"/>
       <use x="644.355469" xlink:href="#DejaVuSans-64"/>
       <use x="707.832031" xlink:href="#DejaVuSans-29"/>
       <use x="746.845703" xlink:href="#DejaVuSans-20"/>
       <use x="778.632812" xlink:href="#DejaVuSans-20"/>
       <use x="810.419922" xlink:href="#DejaVuSans-20"/>
       <use x="842.207031" xlink:href="#DejaVuSans-20"/>
       <use x="873.994141" xlink:href="#DejaVuSans-20"/>
       <use x="905.78125" xlink:href="#DejaVuSans-20"/>
       <use x="937.568359" xlink:href="#DejaVuSans-20"/>
       <use x="969.355469" xlink:href="#DejaVuSans-20"/>
       <use x="1001.142578" xlink:href="#DejaVuSans-20"/>
       <use x="1032.929688" xlink:href="#DejaVuSans-20"/>
      </g>
     </g>
    </g>
   </g>
   <g id="LineCollection_1">
    <path clip-path="url(#pce3b83a04f)" d="M 338.541566 57.4995 
L 523.488612 57.4995 
" style="fill:none;stroke:#000000;stroke-width:1.5;"/>
    <path clip-path="url(#pce3b83a04f)" d="M 303.930416 100.9875 
L 417.601292 100.9875 
" style="fill:none;stroke:#000000;stroke-width:1.5;"/>
    <path clip-path="url(#pce3b83a04f)" d="M 318.288281 144.4755 
L 369.363483 144.4755 
" style="fill:none;stroke:#000000;stroke-width:1.5;"/>
    <path clip-path="url(#pce3b83a04f)" d="M 299.444039 187.9635 
L 414.47253 187.9635 
" style="fill:none;stroke:#000000;stroke-width:1.5;"/>
    <path clip-path="url(#pce3b83a04f)" d="M 289.274818 231.4515 
L 386.091789 231.4515 
" style="fill:none;stroke:#000000;stroke-width:1.5;"/>
   </g>
   <g id="LineCollection_2">
    <path clip-path="url(#pce3b83a04f)" d="M 278.057813 35.7555 
L 278.057813 274.9395 
" style="fill:none;stroke:#000000;stroke-dasharray:1.5,2.475;stroke-dashoffset:0;stroke-width:1.5;"/>
   </g>
   <g id="line2d_16">
    <defs>
     <path d="M 0 4 
L 0 -4 
" id="m44419dd7f9" style="stroke:#000000;"/>
    </defs>
    <g clip-path="url(#pce3b83a04f)">
     <use style="stroke:#000000;" x="338.541566" xlink:href="#m44419dd7f9" y="57.4995"/>
     <use style="stroke:#000000;" x="303.930416" xlink:href="#m44419dd7f9" y="100.9875"/>
     <use style="stroke:#000000;" x="318.288281" xlink:href="#m44419dd7f9" y="144.4755"/>
     <use style="stroke:#000000;" x="299.444039" xlink:href="#m44419dd7f9" y="187.9635"/>
     <use style="stroke:#000000;" x="289.274818" xlink:href="#m44419dd7f9" y="231.4515"/>
    </g>
   </g>
   <g id="line2d_17">
    <g clip-path="url(#pce3b83a04f)">
     <use style="stroke:#000000;" x="523.488612" xlink:href="#m44419dd7f9" y="57.4995"/>
     <use style="stroke:#000000;" x="417.601292" xlink:href="#m44419dd7f9" y="100.9875"/>
     <use style="stroke:#000000;" x="369.363483" xlink:href="#m44419dd7f9" y="144.4755"/>
     <use style="stroke:#000000;" x="414.47253" xlink:href="#m44419dd7f9" y="187.9635"/>
     <use style="stroke:#000000;" x="386.091789" xlink:href="#m44419dd7f9" y="231.4515"/>
    </g>
   </g>
   <g id="patch_8">
    <path d="M 203.657813 253.1955 
L 203.657813 35.7555 
" style="fill:none;stroke:#000000;stroke-linecap:square;stroke-linejoin:miter;stroke-width:0.8;"/>
   </g>
   <g id="patch_9">
    <path d="M 538.457813 253.1955 
L 538.457813 35.7555 
" style="fill:none;stroke:#000000;stroke-linecap:square;stroke-linejoin:miter;stroke-width:0.8;"/>
   </g>
   <g id="patch_10">
    <path d="M 203.657813 253.1955 
L 538.457813 253.1955 
" style="fill:none;stroke:#000000;stroke-linecap:square;stroke-linejoin:miter;stroke-width:0.8;"/>
   </g>
   <g id="patch_11">
    <path d="M 203.657813 35.7555 
L 538.457813 35.7555 
" style="fill:none;stroke:#000000;stroke-linecap:square;stroke-linejoin:miter;stroke-width:0.8;"/>
   </g>
   <g id="text_17">
    <!-- Multipliers on monthly rent vs -->
    <g transform="translate(281.185313 16.318125)scale(0.12 -0.12)">
     <use xlink:href="#DejaVuSans-4d"/>
     <use x="86.279297" xlink:href="#DejaVuSans-75"/>
     <use x="149.658203" xlink:href="#DejaVuSans-6c"/>
     <use x="177.441406" xlink:href="#DejaVuSans-74"/>
     <use x="216.650391" xlink:href="#DejaVuSans-69"/>
     <use x="244.433594" xlink:href="#DejaVuSans-70"/>
     <use x="307.910156" xlink:href="#DejaVuSans-6c"/>
     <use x="335.693359" xlink:href="#DejaVuSans-69"/>
     <use x="363.476562" xlink:href="#DejaVuSans-65"/>
     <use x="425" xlink:href="#DejaVuSans-72"/>
     <use x="466.113281" xlink:href="#DejaVuSans-73"/>
     <use x="518.212891" xlink:href="#DejaVuSans-20"/>
     <use x="550" xlink:href="#DejaVuSans-6f"/>
     <use x="611.181641" xlink:href="#DejaVuSans-6e"/>
     <use x="674.560547" xlink:href="#DejaVuSans-20"/>
     <use x="706.347656" xlink:href="#DejaVuSans-6d"/>
     <use x="803.759766" xlink:href="#DejaVuSans-6f"/>
     <use x="864.941406" xlink:href="#DejaVuSans-6e"/>
     <use x="928.320312" xlink:href="#DejaVuSans-74"/>
     <use x="967.529297" xlink:href="#DejaVuSans-68"/>
     <use x="1030.908203" xlink:href="#DejaVuSans-6c"/>
     <use x="1058.691406" xlink:href="#DejaVuSans-79"/>
     <use x="1117.871094" xlink:href="#DejaVuSans-20"/>
     <use x="1149.658203" xlink:href="#DejaVuSans-72"/>
     <use x="1190.740234" xlink:href="#DejaVuSans-65"/>
     <use x="1252.263672" xlink:href="#DejaVuSans-6e"/>
     <use x="1315.642578" xlink:href="#DejaVuSans-74"/>
     <use x="1354.851562" xlink:href="#DejaVuSans-20"/>
     <use x="1386.638672" xlink:href="#DejaVuSans-76"/>
     <use x="1445.818359" xlink:href="#DejaVuSans-73"/>
    </g>
    <!-- selected features of metro Boston apartments -->
    <defs>
     <path d="M 19.671875 34.8125 
L 19.671875 8.109375 
L 35.5 8.109375 
Q 43.453125 8.109375 47.28125 11.40625 
Q 51.125 14.703125 51.125 21.484375 
Q 51.125 28.328125 47.28125 31.5625 
Q 43.453125 34.8125 35.5 34.8125 
z
M 19.671875 64.796875 
L 19.671875 42.828125 
L 34.28125 42.828125 
Q 41.5 42.828125 45.03125 45.53125 
Q 48.578125 48.25 48.578125 53.8125 
Q 48.578125 59.328125 45.03125 62.0625 
Q 41.5 64.796875 34.28125 64.796875 
z
M 9.8125 72.90625 
L 35.015625 72.90625 
Q 46.296875 72.90625 52.390625 68.21875 
Q 58.5 63.53125 58.5 54.890625 
Q 58.5 48.1875 55.375 44.234375 
Q 52.25 40.28125 46.1875 39.3125 
Q 53.46875 37.75 57.5 32.78125 
Q 61.53125 27.828125 61.53125 20.40625 
Q 61.53125 10.640625 54.890625 5.3125 
Q 48.25 0 35.984375 0 
L 9.8125 0 
z
" id="DejaVuSans-42"/>
    </defs>
    <g transform="translate(231.931875 29.7555)scale(0.12 -0.12)">
     <use xlink:href="#DejaVuSans-73"/>
     <use x="52.099609" xlink:href="#DejaVuSans-65"/>
     <use x="113.623047" xlink:href="#DejaVuSans-6c"/>
     <use x="141.40625" xlink:href="#DejaVuSans-65"/>
     <use x="202.929688" xlink:href="#DejaVuSans-63"/>
     <use x="257.910156" xlink:href="#DejaVuSans-74"/>
     <use x="297.119141" xlink:href="#DejaVuSans-65"/>
     <use x="358.642578" xlink:href="#DejaVuSans-64"/>
     <use x="422.119141" xlink:href="#DejaVuSans-20"/>
     <use x="453.90625" xlink:href="#DejaVuSans-66"/>
     <use x="489.111328" xlink:href="#DejaVuSans-65"/>
     <use x="550.634766" xlink:href="#DejaVuSans-61"/>
     <use x="611.914062" xlink:href="#DejaVuSans-74"/>
     <use x="651.123047" xlink:href="#DejaVuSans-75"/>
     <use x="714.501953" xlink:href="#DejaVuSans-72"/>
     <use x="755.583984" xlink:href="#DejaVuSans-65"/>
     <use x="817.107422" xlink:href="#DejaVuSans-73"/>
     <use x="869.207031" xlink:href="#DejaVuSans-20"/>
     <use x="900.994141" xlink:href="#DejaVuSans-6f"/>
     <use x="962.175781" xlink:href="#DejaVuSans-66"/>
     <use x="997.380859" xlink:href="#DejaVuSans-20"/>
     <use x="1029.167969" xlink:href="#DejaVuSans-6d"/>
     <use x="1126.580078" xlink:href="#DejaVuSans-65"/>
     <use x="1188.103516" xlink:href="#DejaVuSans-74"/>
     <use x="1227.3125" xlink:href="#DejaVuSans-72"/>
     <use x="1268.394531" xlink:href="#DejaVuSans-6f"/>
     <use x="1329.576172" xlink:href="#DejaVuSans-20"/>
     <use x="1361.363281" xlink:href="#DejaVuSans-42"/>
     <use x="1429.966797" xlink:href="#DejaVuSans-6f"/>
     <use x="1491.148438" xlink:href="#DejaVuSans-73"/>
     <use x="1543.248047" xlink:href="#DejaVuSans-74"/>
     <use x="1582.457031" xlink:href="#DejaVuSans-6f"/>
     <use x="1643.638672" xlink:href="#DejaVuSans-6e"/>
     <use x="1707.017578" xlink:href="#DejaVuSans-20"/>
     <use x="1738.804688" xlink:href="#DejaVuSans-61"/>
     <use x="1800.083984" xlink:href="#DejaVuSans-70"/>
     <use x="1863.560547" xlink:href="#DejaVuSans-61"/>
     <use x="1924.839844" xlink:href="#DejaVuSans-72"/>
     <use x="1965.953125" xlink:href="#DejaVuSans-74"/>
     <use x="2005.162109" xlink:href="#DejaVuSans-6d"/>
     <use x="2102.574219" xlink:href="#DejaVuSans-65"/>
     <use x="2164.097656" xlink:href="#DejaVuSans-6e"/>
     <use x="2227.476562" xlink:href="#DejaVuSans-74"/>
     <use x="2266.685547" xlink:href="#DejaVuSans-73"/>
    </g>
   </g>
  </g>
 </g>
 <defs>
  <clipPath id="pce3b83a04f">
   <rect height="217.44" width="334.8" x="203.657813" y="35.7555"/>
  </clipPath>
 </defs>
</svg>
